# xmcd
#
# Track frame offsets:
# 150
# 22620
# 43297
# 65627
# 85647
# 108450
# 129542
#
# Disc length: 1983 seconds
#
# Revision: 0
# Processed by: cddbd v1.5.1PL0 Copyright (c) Steve Scherf et al.
# Submitted via: MacMP3 Pro 5.0 (http://mp3.act2.co.jp/)
#
DISCID=5407bd07
DTITLE=aiueo - VOCAL ALBUM Vol.2
DYEAR=1900
DGENRE=
TTITLE0=cherish
TTITLE1=one day
TTITLE2=scene3
TTITLE3=preparation
TTITLE4=brave soul
TTITLE5=scene4
TTITLE6=destination
EXTD=
EXTT0=
EXTT1=
EXTT2=
EXTT3=
EXTT4=
EXTT5=
EXTT6=
PLAYORDER=
